<?xml version="1.0" encoding="UTF-8" ?>
<!DOCTYPE svg PUBLIC "-//W3C//DTD SVG 1.1//EN" "http://www.w3.org/Graphics/SVG/1.1/DTD/svg11.dtd">
<svg width="652pt" height="702pt" viewBox="0 0 652 702" version="1.1" xmlns="http://www.w3.org/2000/svg">
<g id="#2a3444ff">
<path fill="#2a3444" opacity="1.00" d=" M 0.00 0.00 L 652.00 0.00 L 652.00 702.00 L 0.00 702.00 L 0.00 0.00 M 321.21 1.33 C 314.66 3.15 308.69 7.75 306.08 14.13 C 303.62 19.62 303.60 26.17 306.28 31.59 C 309.68 37.88 315.91 42.63 322.97 43.98 C 329.41 44.84 335.73 41.54 340.18 37.08 C 344.86 32.63 346.21 25.64 345.41 19.45 C 344.27 8.26 332.54 -1.64 321.21 1.33 M 293.93 54.85 C 280.87 55.40 267.04 57.11 256.35 65.33 C 248.76 71.39 246.26 81.69 246.62 91.01 C 246.92 103.79 256.32 116.90 269.41 118.79 C 268.43 131.19 269.73 143.63 269.51 156.05 C 269.03 162.67 269.84 169.31 269.26 175.94 C 269.71 194.96 269.34 213.98 269.59 233.02 C 269.35 238.49 270.66 244.15 269.48 249.50 C 263.17 250.86 256.79 252.84 251.10 256.13 C 243.78 259.95 236.64 264.14 230.04 269.13 C 217.71 278.24 205.74 288.02 195.59 299.56 C 185.11 311.17 176.85 324.52 169.08 338.03 C 162.14 351.65 156.65 365.99 152.63 380.73 C 150.15 396.38 147.76 412.18 148.23 428.07 C 149.54 441.03 150.39 454.29 154.23 466.78 C 154.74 471.74 157.11 476.25 158.43 481.02 C 160.64 486.37 162.21 491.99 164.91 497.14 C 168.05 505.44 173.19 512.76 177.76 520.30 C 185.05 532.86 195.16 543.43 205.49 553.50 C 210.59 558.74 215.94 563.80 221.96 567.99 C 227.13 571.66 232.09 575.73 237.87 578.45 C 245.44 582.03 252.84 585.95 260.37 589.61 C 269.40 593.32 278.59 596.72 288.05 599.14 C 311.50 603.96 336.21 605.92 359.59 599.67 C 374.61 596.36 389.32 591.35 402.91 584.10 C 411.73 579.87 420.20 574.87 427.95 568.90 C 433.85 564.13 440.15 559.84 445.54 554.47 C 450.74 548.98 455.44 543.07 460.34 537.32 C 468.40 527.98 474.57 517.25 480.58 506.53 C 488.08 490.82 493.46 474.11 496.38 456.94 C 500.34 438.21 499.37 418.89 497.80 399.94 C 496.64 390.54 495.39 381.05 492.19 372.09 C 488.98 363.56 486.11 354.91 482.52 346.53 C 475.37 330.76 465.87 316.19 455.32 302.50 C 438.81 282.72 418.93 265.26 395.46 254.27 C 391.27 252.17 386.50 251.77 382.23 249.94 C 382.87 241.96 382.39 233.94 382.40 225.95 C 382.23 208.97 382.60 191.99 382.15 175.02 C 381.97 166.33 382.76 157.66 382.28 148.99 C 382.55 139.04 383.05 128.93 381.00 119.11 C 381.30 118.90 381.89 118.48 382.19 118.27 C 389.55 117.30 394.58 111.31 399.18 106.06 C 403.48 98.91 404.50 90.00 402.85 81.93 C 401.09 73.23 394.75 66.20 387.39 61.64 C 373.97 54.96 358.64 56.07 344.13 54.66 C 335.08 53.53 326.11 57.11 317.09 55.32 C 309.41 54.46 301.61 53.57 293.93 54.85 M 419.21 68.70 C 425.21 78.37 423.78 90.71 420.35 101.05 C 419.34 105.72 416.26 109.53 414.85 114.06 C 426.90 116.77 438.48 121.21 449.53 126.68 C 462.67 133.44 475.82 140.32 487.67 149.23 C 504.69 160.14 519.62 173.83 533.70 188.26 C 534.54 189.10 535.15 190.13 535.68 191.20 C 537.61 192.94 539.53 194.84 540.69 197.20 C 542.24 198.65 544.29 200.16 544.51 202.42 L 545.57 202.38 L 545.47 203.53 L 546.61 203.47 L 546.48 204.65 L 547.83 204.66 C 547.67 205.14 547.35 206.11 547.19 206.59 L 548.63 206.38 L 548.30 207.76 L 549.48 207.50 C 549.48 208.88 549.50 211.10 551.63 210.63 C 551.56 211.14 551.42 212.17 551.36 212.68 L 553.69 212.24 L 552.20 213.74 C 552.81 213.96 554.03 214.41 554.64 214.63 C 554.58 215.13 554.46 216.13 554.40 216.63 L 557.05 216.18 L 555.17 217.77 C 555.80 217.97 557.06 218.37 557.69 218.57 C 557.59 219.09 557.39 220.11 557.29 220.62 L 559.74 220.26 C 557.92 221.68 558.17 222.47 560.50 222.64 C 560.34 224.12 560.75 225.81 562.65 225.70 C 562.58 226.16 562.43 227.10 562.36 227.57 L 564.10 227.14 L 562.96 228.68 L 564.50 228.40 C 564.38 230.06 564.64 231.86 566.75 231.78 C 566.63 232.21 566.37 233.07 566.25 233.49 L 567.48 233.55 C 567.37 234.91 567.82 236.83 569.63 236.73 C 569.60 237.11 569.54 237.86 569.52 238.23 C 570.72 238.87 571.23 240.09 571.59 241.34 C 574.63 243.53 574.37 248.88 577.73 250.86 C 577.64 251.28 577.46 252.12 577.38 252.54 L 578.73 252.65 C 578.66 253.05 578.52 253.86 578.45 254.26 C 579.76 254.73 580.03 256.30 580.72 257.36 C 583.89 263.92 587.60 270.26 589.82 277.24 C 591.21 278.05 589.93 280.16 591.46 280.86 C 592.31 284.04 594.22 286.85 594.85 290.10 C 598.31 299.72 601.50 309.48 603.70 319.49 C 607.73 337.03 612.75 354.80 611.26 372.98 C 610.45 383.99 611.88 395.08 610.15 406.03 C 608.57 422.01 604.21 437.50 600.16 452.99 C 595.91 468.19 589.64 482.70 583.11 497.04 C 570.83 519.94 556.57 541.85 539.71 561.65 C 525.48 577.81 509.00 591.85 491.79 604.73 C 482.36 610.72 473.12 617.08 463.15 622.17 C 447.61 630.00 431.71 637.27 415.06 642.43 C 370.06 655.47 322.14 659.04 275.87 651.23 C 261.79 648.32 247.47 646.11 233.96 641.00 C 225.55 638.45 217.62 634.59 209.44 631.43 C 201.93 628.65 195.05 624.53 187.89 621.02 C 171.93 611.83 156.66 601.37 142.85 589.17 C 130.09 577.91 117.83 566.01 107.17 552.73 C 99.61 543.51 93.08 533.52 86.14 523.85 C 82.06 517.50 77.91 511.16 74.75 504.30 C 70.81 496.82 66.78 489.38 63.14 481.75 C 59.41 473.46 56.99 464.69 53.86 456.18 C 49.55 444.29 46.56 431.94 44.83 419.42 C 42.62 401.71 40.82 383.82 42.07 365.96 C 45.04 331.42 53.22 297.01 69.00 265.99 C 74.24 254.32 80.15 242.91 87.27 232.26 C 98.33 213.33 112.60 196.52 127.83 180.84 C 142.64 166.11 159.06 153.02 176.61 141.68 C 188.25 135.38 198.95 127.31 211.32 122.37 C 218.77 119.44 225.84 114.14 234.19 114.67 C 231.69 110.01 228.45 105.54 227.65 100.18 C 226.57 93.46 225.95 86.46 227.69 79.80 C 228.06 76.43 230.09 73.55 230.41 70.17 C 229.56 70.36 227.86 70.73 227.01 70.92 C 202.81 78.75 179.82 89.89 157.97 102.85 C 150.19 108.09 141.77 112.37 134.45 118.30 C 117.83 130.13 102.00 143.22 88.37 158.45 C 77.40 170.29 67.15 182.85 58.38 196.42 C 51.11 206.49 44.67 217.16 39.18 228.31 C 32.68 239.87 27.28 252.01 22.47 264.36 C 19.01 271.83 16.98 279.83 14.47 287.64 C 12.08 294.90 10.14 302.32 8.95 309.87 C 6.26 323.21 3.18 336.50 2.19 350.09 C -1.92 389.14 -0.05 429.37 12.11 466.91 C 16.89 484.12 23.99 500.52 31.32 516.76 C 35.10 524.22 39.14 531.54 43.17 538.87 C 54.65 559.05 68.47 577.94 84.47 594.73 C 90.50 602.22 97.53 608.86 104.69 615.25 C 119.72 629.60 136.89 641.39 154.10 652.92 C 178.38 667.92 204.49 680.14 232.05 687.74 C 245.69 692.50 259.99 694.90 274.17 697.45 C 297.25 700.95 320.70 701.78 344.00 700.63 C 372.23 699.71 400.15 694.03 427.08 685.71 C 445.35 678.91 464.08 672.91 481.06 663.14 C 491.77 656.89 502.88 651.25 513.02 644.09 C 520.68 639.58 527.24 633.54 534.47 628.42 C 548.90 617.35 562.17 604.82 574.47 591.46 C 581.18 582.55 588.79 574.40 595.22 565.28 C 600.28 559.30 602.94 551.80 607.52 545.50 C 618.59 529.80 624.14 511.19 632.19 493.95 C 638.67 475.43 643.64 456.37 647.04 437.04 C 648.78 427.79 650.42 418.45 650.44 409.01 C 651.09 402.55 651.39 396.04 651.19 389.54 C 652.18 369.69 651.02 349.73 647.82 330.12 C 645.05 310.68 638.63 292.04 632.56 273.45 C 630.52 267.92 627.94 262.62 625.80 257.14 C 615.29 230.98 600.01 207.12 583.78 184.20 C 573.74 170.76 562.61 158.13 550.40 146.62 C 542.06 138.56 533.65 130.52 524.12 123.85 C 516.41 117.72 508.45 111.87 499.76 107.18 C 490.91 100.99 481.05 96.52 471.62 91.31 C 464.65 87.23 456.98 84.60 449.65 81.27 C 439.52 77.04 429.45 72.67 419.21 68.70 M 507.93 255.96 C 507.80 269.32 507.76 282.69 507.44 296.05 C 508.31 316.69 508.03 337.35 507.87 358.00 C 507.38 364.21 507.39 370.58 509.47 376.53 C 512.67 386.43 514.52 396.66 516.12 406.91 C 516.09 399.60 516.98 392.32 516.82 385.00 C 517.11 374.65 516.28 364.26 517.32 353.94 C 517.68 338.97 517.61 324.01 517.97 309.04 C 517.59 291.04 518.72 273.06 518.59 255.06 C 518.73 252.37 517.00 249.32 514.03 249.36 C 510.42 248.90 507.74 252.64 507.93 255.96 M 143.79 250.84 C 143.21 252.13 142.61 253.47 142.89 254.94 C 143.15 262.39 144.44 269.80 143.62 277.28 C 143.19 285.53 141.94 293.75 142.13 302.05 C 141.83 320.60 142.72 339.13 143.15 357.67 C 145.95 348.79 149.79 340.29 152.85 331.51 C 153.78 329.79 154.70 327.94 154.66 325.93 C 154.55 320.14 155.06 314.24 153.48 308.59 C 152.57 301.40 154.07 294.09 152.93 286.91 C 151.12 278.39 152.22 269.63 152.10 261.02 C 152.08 256.36 148.58 251.33 143.79 250.84 M 130.45 254.11 C 126.83 258.83 126.19 265.38 128.51 270.81 C 129.05 270.80 130.12 270.77 130.66 270.75 C 131.41 269.26 131.92 267.66 131.93 265.98 C 132.01 261.95 133.89 258.10 132.83 254.03 C 132.24 254.05 131.05 254.09 130.45 254.11 M 122.73 285.08 C 122.15 296.73 122.96 308.40 122.93 320.06 C 123.30 363.70 122.99 407.34 122.84 450.99 C 123.03 459.27 121.33 467.53 122.11 475.80 C 124.05 482.09 133.72 478.69 133.45 472.94 C 133.69 460.60 131.67 448.35 131.05 436.04 C 130.42 419.36 131.19 402.66 132.80 386.06 C 133.25 374.03 132.14 362.01 132.17 349.99 C 132.13 333.98 131.85 317.98 131.68 301.98 C 131.38 294.91 133.08 287.65 131.21 280.72 C 127.80 279.83 122.78 280.69 122.73 285.08 M 530.41 282.63 C 527.46 284.33 528.08 288.13 527.88 291.01 C 527.91 302.34 527.26 313.66 527.32 324.99 C 527.15 352.99 526.36 380.99 526.64 408.99 C 526.71 430.65 527.05 452.33 526.69 473.99 C 526.57 478.41 532.23 480.51 535.60 478.44 C 539.07 475.65 537.88 470.85 537.92 466.99 C 535.71 440.39 536.17 413.67 536.70 387.01 C 536.49 373.03 536.61 359.04 536.78 345.05 C 536.86 335.06 536.29 325.06 536.87 315.08 C 537.21 305.69 538.28 296.32 537.94 286.92 C 537.59 283.38 533.69 280.70 530.41 282.63 M 490.84 299.76 C 489.24 301.86 489.07 304.59 488.74 307.12 C 487.96 313.01 487.61 319.25 490.22 324.78 C 491.70 329.27 494.78 332.93 496.73 337.19 C 497.13 329.79 497.67 322.40 498.00 315.00 C 497.83 310.39 498.66 305.55 496.87 301.16 C 495.90 298.87 492.77 298.61 490.84 299.76 M 106.33 308.45 C 104.60 309.39 102.77 310.97 102.60 313.06 C 103.07 325.36 103.22 337.67 103.49 349.98 C 103.08 359.32 103.18 368.68 103.42 378.02 C 103.13 401.32 103.52 424.68 102.49 447.95 C 102.74 451.24 106.83 454.18 109.77 451.89 C 112.75 449.99 112.83 446.17 112.83 443.02 C 112.97 401.67 113.05 360.32 112.86 318.97 C 112.65 316.10 113.68 312.87 111.92 310.34 C 110.65 308.70 108.37 307.53 106.33 308.45 M 549.28 310.18 C 546.30 314.57 547.00 320.03 546.88 325.04 C 547.03 364.36 546.82 403.68 546.55 442.99 C 546.26 446.28 547.72 450.14 551.02 451.31 C 554.75 451.39 557.50 447.55 556.90 444.01 C 556.28 427.37 555.91 410.72 556.02 394.06 C 556.24 370.02 555.55 345.97 556.43 321.94 C 556.49 318.55 557.76 314.94 556.31 311.70 C 554.85 309.27 551.62 309.92 549.28 310.18 M 86.26 335.38 C 84.06 336.25 82.45 338.56 82.87 340.98 C 83.63 365.99 84.77 391.06 82.76 416.05 C 82.33 419.05 83.75 422.16 86.45 423.60 C 90.27 424.68 93.74 420.64 93.85 417.10 C 93.00 404.41 93.55 391.69 93.25 378.98 C 93.81 369.34 93.72 359.66 93.24 350.02 C 93.29 346.37 93.79 342.66 92.96 339.07 C 92.20 336.28 89.10 334.19 86.26 335.38 M 570.30 335.08 C 567.98 336.97 566.72 340.00 566.92 342.98 C 567.00 362.32 567.05 381.67 566.95 401.02 C 566.94 407.04 566.50 413.09 567.04 419.10 C 567.85 421.06 569.73 423.12 572.09 422.71 C 574.71 422.67 576.42 420.30 577.26 418.07 C 577.55 411.06 577.50 404.02 576.80 397.03 C 576.81 385.68 576.43 374.32 577.03 362.97 C 577.81 355.67 577.01 348.34 577.52 341.03 C 577.87 337.42 573.86 333.45 570.30 335.08 M 62.96 363.99 C 63.11 373.67 63.26 383.36 62.63 393.03 C 62.27 396.24 63.86 399.03 66.33 400.94 C 71.04 402.17 74.02 397.11 73.94 393.05 C 73.84 384.02 73.89 374.99 73.85 365.96 C 73.50 363.12 73.36 359.02 70.00 358.17 C 66.41 357.06 62.73 360.40 62.96 363.99 M 586.78 366.07 C 586.89 376.52 585.60 387.09 587.21 397.46 C 588.72 398.27 590.12 399.43 591.81 399.87 C 594.03 399.75 596.48 398.64 596.91 396.23 C 597.09 392.09 597.00 387.92 596.26 383.83 C 595.73 376.88 596.61 369.90 596.09 362.95 C 595.73 361.98 595.30 361.05 594.82 360.15 C 590.79 357.48 586.48 362.01 586.78 366.07 M 508.85 475.47 C 507.29 483.24 506.50 491.13 505.79 499.02 C 505.70 502.12 505.38 505.73 507.96 508.00 C 510.09 510.26 514.27 512.76 516.87 509.82 C 520.87 506.08 518.77 500.21 518.75 495.47 C 517.97 488.69 518.59 481.85 517.73 475.10 C 517.33 461.66 516.16 448.25 515.57 434.83 C 514.05 448.47 511.71 462.04 508.85 475.47 M 139.56 484.96 C 139.36 487.23 139.58 489.59 138.94 491.82 C 137.18 496.76 138.08 502.11 137.90 507.25 C 138.30 507.22 139.12 507.17 139.52 507.15 C 141.31 506.56 143.03 505.80 144.69 504.92 C 145.06 503.93 145.44 502.95 145.82 501.98 C 145.64 501.58 145.30 500.78 145.12 500.38 C 145.56 494.93 144.06 488.42 139.56 484.96 Z" />
<path fill="#2a3444" opacity="1.00" d=" M 276.68 73.66 C 283.01 72.16 289.57 73.04 296.00 73.20 C 306.69 73.29 317.35 74.22 328.03 74.59 C 338.37 74.65 348.71 73.95 359.05 73.93 C 365.80 74.01 373.15 71.98 379.31 75.71 C 383.19 78.41 385.62 83.27 385.26 88.02 C 385.49 93.12 381.75 97.10 378.41 100.46 C 374.67 103.97 369.28 103.98 364.64 105.43 C 365.85 113.90 365.14 122.47 365.22 130.98 C 365.66 174.32 364.83 217.69 365.81 261.01 C 375.61 262.49 384.12 267.77 393.08 271.62 C 401.17 275.23 408.60 280.14 415.83 285.22 C 422.22 289.69 427.48 295.51 433.03 300.94 C 437.16 304.89 440.60 309.47 444.11 313.96 C 454.52 328.04 465.27 342.25 471.44 358.82 C 475.73 371.47 479.95 384.24 481.73 397.53 C 483.64 410.26 484.86 423.17 483.85 436.04 C 481.94 459.03 476.17 481.89 465.35 502.34 C 460.91 509.84 456.89 517.64 451.38 524.44 C 444.95 533.19 438.33 541.92 430.07 549.05 C 423.33 554.75 416.36 560.23 408.86 564.89 C 402.00 569.45 394.36 572.59 387.01 576.22 C 371.49 583.26 354.74 587.21 337.82 588.84 C 313.32 590.17 288.66 585.28 266.15 575.65 C 253.18 570.39 240.77 563.76 229.64 555.23 C 217.13 545.90 206.10 534.65 196.90 522.05 C 193.67 516.99 189.56 512.57 186.58 507.35 C 178.83 494.40 173.13 480.29 168.86 465.84 C 163.67 444.43 161.74 421.99 165.50 400.18 C 169.02 377.28 177.41 355.21 189.61 335.53 C 195.64 326.39 201.58 317.09 208.99 308.98 C 220.64 297.17 232.68 285.30 247.37 277.31 C 259.26 270.02 272.05 263.54 285.99 261.46 C 285.69 237.63 285.95 213.81 285.91 189.98 C 286.05 183.32 286.30 176.67 285.94 170.02 C 285.57 153.68 286.26 137.32 285.42 121.00 C 285.39 115.68 285.19 110.32 285.90 105.03 C 277.65 106.32 268.49 101.26 266.10 93.06 C 263.44 85.18 268.50 75.57 276.68 73.66 M 328.41 119.30 C 324.78 121.92 324.56 128.09 328.31 130.74 C 331.58 134.02 336.67 130.96 338.41 127.53 C 340.34 122.08 333.41 116.36 328.41 119.30 M 326.38 146.39 C 323.67 147.86 321.38 150.81 322.00 154.05 C 322.73 159.04 329.03 161.84 333.31 159.34 C 334.95 158.00 336.45 156.26 336.96 154.15 C 337.17 151.39 335.62 148.96 333.89 146.98 C 332.09 144.77 328.63 145.12 326.38 146.39 M 320.50 180.75 C 311.69 182.83 304.49 191.77 305.81 200.99 C 306.86 207.80 311.50 214.07 317.81 216.91 C 327.36 222.13 339.97 214.89 342.67 204.93 C 346.84 192.25 333.61 177.22 320.50 180.75 M 358.48 285.75 C 353.44 288.89 349.63 294.77 350.60 300.90 C 350.60 305.36 354.94 308.25 358.90 309.00 C 366.06 310.91 373.85 304.39 373.43 297.04 C 373.74 289.65 365.77 282.26 358.48 285.75 M 316.47 309.09 C 316.27 321.41 317.12 333.73 317.04 346.05 C 316.38 407.73 317.16 469.41 317.11 531.09 C 317.20 534.06 317.54 537.99 314.21 539.39 C 311.34 539.95 307.30 540.36 305.52 537.50 C 304.47 533.79 305.09 529.89 305.30 526.12 C 306.77 510.77 306.12 495.33 306.40 479.94 C 306.89 455.96 306.23 431.99 306.72 408.01 C 307.05 386.60 306.33 365.20 305.72 343.81 C 305.83 340.39 302.37 337.36 299.00 338.30 C 295.99 340.00 296.02 343.97 295.94 346.99 C 296.31 372.67 297.05 398.36 296.44 424.04 C 296.36 450.68 296.96 477.34 296.24 503.98 C 295.91 508.36 296.36 513.15 294.03 517.08 C 291.34 519.76 286.16 517.55 285.69 513.94 C 285.11 510.64 285.84 507.32 285.95 504.02 C 286.28 479.70 285.94 455.39 286.24 431.07 C 286.15 409.36 286.04 387.63 284.88 365.96 C 284.93 362.92 285.46 359.93 285.70 356.92 C 286.90 355.98 288.16 355.10 289.34 354.12 C 289.08 352.88 289.53 352.14 290.67 351.91 C 289.34 351.69 287.85 351.80 286.66 351.11 C 285.34 350.59 284.24 348.59 282.67 349.53 L 282.32 348.34 C 281.95 348.37 281.21 348.43 280.84 348.46 C 279.47 346.56 276.81 346.35 274.91 345.15 C 269.83 343.04 265.34 339.81 260.50 337.25 C 253.08 333.53 246.03 329.10 238.35 325.92 C 232.85 323.70 226.88 322.90 221.01 322.57 C 215.84 322.01 211.84 326.41 209.59 330.58 C 204.58 339.48 197.62 347.23 193.69 356.74 C 180.31 385.38 172.72 418.24 179.79 449.60 C 183.59 476.08 195.22 501.25 212.64 521.52 C 219.41 528.68 226.12 536.03 234.19 541.77 C 239.01 545.98 244.04 549.97 249.37 553.51 C 257.06 557.50 264.65 561.86 272.98 564.41 C 284.02 568.00 294.83 573.11 306.53 574.00 C 322.81 577.96 339.68 576.00 355.92 572.90 C 360.87 571.86 366.15 571.56 370.59 568.87 L 370.95 568.89 C 378.79 565.01 387.40 562.76 394.72 557.85 L 394.71 557.50 C 399.41 555.11 403.98 552.49 408.47 549.72 C 421.64 540.67 432.56 528.69 441.66 515.63 C 442.40 514.39 443.69 513.28 443.57 511.71 C 443.72 511.59 444.02 511.35 444.17 511.22 C 454.59 496.04 462.22 478.87 466.30 460.89 C 468.55 452.41 470.40 443.76 470.44 434.95 C 470.54 423.30 470.69 411.50 468.25 400.05 C 466.32 390.29 463.86 380.65 460.99 371.13 C 460.10 368.00 458.47 365.13 457.89 361.91 C 453.44 365.19 448.27 367.30 443.01 368.89 C 427.99 373.91 411.72 374.50 396.14 372.20 C 391.38 370.64 386.41 369.79 381.54 368.64 C 379.60 368.14 377.59 368.08 375.63 368.43 C 375.67 369.36 375.72 370.28 375.77 371.22 C 377.80 371.30 377.93 373.92 380.14 374.08 C 380.15 375.33 380.15 376.58 380.17 377.84 C 376.07 381.38 375.74 386.96 376.29 391.98 C 376.86 401.32 376.50 410.68 376.53 420.03 C 376.05 444.68 377.41 469.35 376.17 493.99 C 375.85 498.54 376.76 503.23 375.49 507.68 C 374.08 511.28 368.22 510.71 366.74 507.45 C 366.18 505.01 366.28 502.48 366.32 500.00 C 366.88 479.66 366.49 459.32 366.44 438.98 C 366.86 414.63 366.20 390.27 367.42 365.95 C 367.37 363.13 368.06 359.49 365.26 357.70 C 362.25 355.07 356.23 356.16 356.77 361.02 C 357.40 386.65 357.04 412.33 356.90 437.97 C 357.54 448.65 356.59 459.35 356.98 470.04 C 356.68 488.35 356.70 506.67 357.22 524.97 C 357.25 527.82 355.95 530.86 353.55 532.49 C 350.14 534.21 345.39 531.04 346.05 527.11 C 347.08 480.09 345.76 433.05 346.78 386.03 C 346.71 371.06 346.10 356.09 346.30 341.12 C 346.87 337.47 342.97 333.63 339.48 335.80 C 336.14 338.42 336.40 343.20 336.55 347.02 C 337.40 358.35 336.45 369.70 336.40 381.04 C 336.62 410.68 336.31 440.32 336.74 469.97 C 337.00 496.30 336.36 522.65 337.09 548.98 C 337.09 551.17 337.06 553.68 335.36 555.32 C 333.41 556.81 330.80 556.49 328.51 556.82 C 327.32 553.36 327.16 549.65 326.79 546.05 C 326.63 535.04 327.08 524.03 327.11 513.02 C 327.06 492.02 326.77 471.03 326.57 450.03 C 326.64 427.03 326.75 404.02 326.50 381.02 C 326.79 367.69 327.30 354.35 326.93 341.01 C 327.05 329.95 327.29 318.88 326.65 307.83 C 326.62 305.55 325.33 302.90 323.00 302.27 C 319.15 301.20 316.57 305.85 316.47 309.09 Z" />
<path fill="#2a3444" opacity="1.00" d=" M 268.57 366.69 C 270.00 366.13 271.63 366.57 273.14 366.51 C 274.87 367.92 276.55 369.69 276.57 372.08 C 276.92 382.03 276.63 391.99 276.63 401.94 C 276.36 416.63 277.00 431.32 276.73 446.01 C 276.51 459.33 276.67 472.66 276.47 485.99 C 276.32 490.61 277.27 495.31 276.28 499.89 C 274.70 503.27 269.53 503.49 267.14 500.88 C 264.91 498.89 265.76 495.61 265.58 492.99 C 265.92 466.32 266.67 439.63 265.76 412.95 C 265.11 399.96 266.30 386.91 264.76 373.97 C 265.01 371.22 266.27 368.34 268.57 366.69 Z" />
<path fill="#2a3444" opacity="1.00" d=" M 385.77 397.00 C 385.33 394.13 387.23 391.96 389.04 390.04 C 392.73 390.15 396.82 392.04 397.90 395.85 C 397.92 399.30 396.94 402.65 396.80 406.10 C 396.54 427.71 396.63 449.33 396.45 470.94 C 396.36 477.30 397.51 483.60 397.58 489.95 C 397.50 493.14 396.73 496.98 393.71 498.69 C 391.49 500.05 388.71 499.46 386.77 497.91 C 386.17 495.99 385.96 493.98 385.96 491.98 C 385.95 473.00 386.77 454.02 386.23 435.05 C 386.55 422.36 386.20 409.67 385.77 397.00 Z" />
<path fill="#2a3444" opacity="1.00" d=" M 249.37 394.52 C 251.59 394.02 254.57 394.04 255.91 396.24 C 256.44 400.12 256.09 404.07 256.16 407.99 C 255.63 431.34 256.14 454.69 256.19 478.04 C 256.28 482.04 252.00 486.09 248.01 483.97 C 243.53 482.32 244.65 476.82 244.85 473.09 C 245.63 452.42 245.38 431.71 245.52 411.02 C 245.67 406.51 243.36 401.70 245.67 397.45 C 246.36 395.97 247.78 394.88 249.37 394.52 Z" />
<path fill="#2a3444" opacity="1.00" d=" M 408.49 400.38 C 410.09 398.73 412.56 399.61 414.19 400.74 C 416.98 402.82 419.21 406.35 418.35 409.95 C 415.90 419.80 417.03 430.02 416.64 440.05 C 416.67 449.36 416.42 458.69 416.90 468.00 C 416.99 471.21 416.99 475.21 413.95 477.19 C 411.66 478.15 409.21 476.87 407.33 475.58 C 405.57 471.66 406.52 467.15 406.26 462.97 C 406.67 444.66 405.93 426.36 405.93 408.05 C 405.78 405.28 406.65 402.46 408.49 400.38 Z" />
<path fill="#2a3444" opacity="1.00" d=" M 228.39 410.51 C 231.12 409.46 236.13 409.29 236.63 413.13 C 237.61 427.43 236.85 441.78 236.83 456.10 C 236.64 459.34 237.07 462.75 235.91 465.85 C 233.65 469.20 228.61 468.19 225.95 465.86 C 224.30 459.98 226.30 453.86 226.23 447.89 C 227.02 443.26 225.22 438.73 225.84 434.10 C 226.21 428.76 225.51 423.42 225.51 418.08 C 225.67 415.40 225.66 411.96 228.39 410.51 Z" />
<path fill="#2a3444" opacity="1.00" d=" M 426.72 418.77 C 429.93 414.14 437.20 418.16 437.45 423.05 C 438.14 430.01 439.01 437.21 437.06 444.04 C 436.02 448.88 438.18 454.28 435.91 458.82 C 432.74 460.62 428.73 459.56 425.69 458.02 C 425.19 449.05 425.62 440.05 425.17 431.08 C 425.26 426.99 424.42 422.40 426.72 418.77 Z" />
<path fill="#2a3444" opacity="1.00" d=" M 209.10 430.26 C 212.07 429.34 215.68 429.84 217.71 432.38 C 220.23 435.30 219.46 439.51 218.68 442.94 C 217.91 446.07 215.85 449.99 212.01 449.44 C 208.84 449.57 207.15 446.48 206.20 443.93 C 205.54 441.62 203.40 439.64 204.16 437.09 C 205.00 434.37 206.46 431.59 209.10 430.26 Z" />
<path fill="#2a3444" opacity="1.00" d=" M 446.42 433.22 C 451.80 431.51 459.13 434.38 460.66 440.14 C 460.18 445.01 454.43 447.61 450.03 447.64 C 445.71 447.54 443.69 443.19 441.85 439.95 C 441.80 437.03 444.50 435.06 446.42 433.22 Z" />
<path fill="#2a3444" opacity="1.00" d=" M 187.06 440.95 C 188.79 435.19 196.00 434.45 200.95 435.97 C 201.93 437.34 202.92 438.71 203.92 440.08 C 201.94 443.08 199.72 446.83 195.95 447.65 C 192.11 447.35 188.10 444.84 187.06 440.95 Z" />
</g>
<g id="#fcfdf8ff">
<path fill="#fcfdf8" opacity="1.00" d=" M 321.21 1.33 C 332.54 -1.64 344.27 8.26 345.41 19.45 C 346.21 25.64 344.86 32.63 340.18 37.08 C 335.73 41.54 329.41 44.84 322.97 43.98 C 315.91 42.63 309.68 37.88 306.28 31.59 C 303.60 26.17 303.62 19.62 306.08 14.13 C 308.69 7.75 314.66 3.15 321.21 1.33 Z" />
<path fill="#fcfdf8" opacity="1.00" d=" M 293.93 54.85 C 301.61 53.57 309.41 54.46 317.09 55.32 C 326.11 57.11 335.08 53.53 344.13 54.66 C 358.64 56.07 373.97 54.96 387.39 61.64 C 394.75 66.20 401.09 73.23 402.85 81.93 C 404.50 90.00 403.48 98.91 399.18 106.06 C 394.58 111.31 389.55 117.30 382.19 118.27 C 381.89 118.48 381.30 118.90 381.00 119.11 C 383.05 128.93 382.55 139.04 382.28 148.99 C 382.76 157.66 381.97 166.33 382.15 175.02 C 382.60 191.99 382.23 208.97 382.40 225.95 C 382.39 233.94 382.87 241.96 382.23 249.94 C 386.50 251.77 391.27 252.17 395.46 254.27 C 418.93 265.26 438.81 282.72 455.32 302.50 C 465.87 316.19 475.37 330.76 482.52 346.53 C 486.11 354.91 488.98 363.56 492.19 372.09 C 495.39 381.05 496.64 390.54 497.80 399.94 C 499.37 418.89 500.34 438.21 496.38 456.94 C 493.46 474.11 488.08 490.82 480.58 506.53 C 474.57 517.25 468.40 527.98 460.34 537.32 C 449.97 536.72 441.66 543.97 434.97 550.96 C 428.87 556.28 420.52 558.05 414.53 563.53 C 409.94 568.26 403.19 569.42 397.64 572.59 C 394.20 573.99 390.93 576.79 387.01 576.22 C 394.36 572.59 402.00 569.45 408.86 564.89 C 416.36 560.23 423.33 554.75 430.07 549.05 C 438.33 541.92 444.95 533.19 451.38 524.44 C 456.89 517.64 460.91 509.84 465.35 502.34 C 476.17 481.89 481.94 459.03 483.85 436.04 C 484.86 423.17 483.64 410.26 481.73 397.53 C 479.95 384.24 475.73 371.47 471.44 358.82 C 465.27 342.25 454.52 328.04 444.11 313.96 C 440.60 309.47 437.16 304.89 433.03 300.94 C 427.48 295.51 422.22 289.69 415.83 285.22 C 408.60 280.14 401.17 275.23 393.08 271.62 C 384.12 267.77 375.61 262.49 365.81 261.01 C 364.83 217.69 365.66 174.32 365.22 130.98 C 365.14 122.47 365.85 113.90 364.64 105.43 C 369.28 103.98 374.67 103.97 378.41 100.46 C 381.75 97.10 385.49 93.12 385.26 88.02 C 385.62 83.27 383.19 78.41 379.31 75.71 C 373.15 71.98 365.80 74.01 359.05 73.93 C 348.71 73.95 338.37 74.65 328.03 74.59 C 317.35 74.22 306.69 73.29 296.00 73.20 C 289.57 73.04 283.01 72.16 276.68 73.66 C 268.50 75.57 263.44 85.18 266.10 93.06 C 268.49 101.26 277.65 106.32 285.90 105.03 C 285.19 110.32 285.39 115.68 285.42 121.00 C 286.26 137.32 285.57 153.68 285.94 170.02 C 286.30 176.67 286.05 183.32 285.91 189.98 C 285.95 213.81 285.69 237.63 285.99 261.46 C 272.05 263.54 259.26 270.02 247.37 277.31 C 232.68 285.30 220.64 297.17 208.99 308.98 C 201.58 317.09 195.64 326.39 189.61 335.53 C 177.41 355.21 169.02 377.28 165.50 400.18 C 161.74 421.99 163.67 444.43 168.86 465.84 C 173.13 480.29 178.83 494.40 186.58 507.35 C 189.56 512.57 193.67 516.99 196.90 522.05 C 206.10 534.65 217.13 545.90 229.64 555.23 C 227.40 557.82 223.34 556.36 220.64 555.32 C 214.78 552.12 210.22 547.07 204.87 543.14 C 197.70 538.05 191.27 531.99 185.33 525.53 C 173.20 509.31 163.51 491.25 156.84 472.12 C 156.23 470.22 155.27 468.47 154.23 466.78 C 150.39 454.29 149.54 441.03 148.23 428.07 C 147.76 412.18 150.15 396.38 152.63 380.73 C 156.65 365.99 162.14 351.65 169.08 338.03 C 176.85 324.52 185.11 311.17 195.59 299.56 C 205.74 288.02 217.71 278.24 230.04 269.13 C 236.64 264.14 243.78 259.95 251.10 256.13 C 256.79 252.84 263.17 250.86 269.48 249.50 C 270.66 244.15 269.35 238.49 269.59 233.02 C 269.34 213.98 269.71 194.96 269.26 175.94 C 269.84 169.31 269.03 162.67 269.51 156.05 C 269.73 143.63 268.43 131.19 269.41 118.79 C 256.32 116.90 246.92 103.79 246.62 91.01 C 246.26 81.69 248.76 71.39 256.35 65.33 C 267.04 57.11 280.87 55.40 293.93 54.85 Z" />
<path fill="#fcfdf8" opacity="1.00" d=" M 419.21 68.70 C 429.45 72.67 439.52 77.04 449.65 81.27 C 456.98 84.60 464.65 87.23 471.62 91.31 C 481.05 96.52 490.91 100.99 499.76 107.18 C 508.45 111.87 516.41 117.72 524.12 123.85 C 533.65 130.52 542.06 138.56 550.40 146.62 C 562.61 158.13 573.74 170.76 583.78 184.20 C 600.01 207.12 615.29 230.98 625.80 257.14 C 627.94 262.62 630.52 267.92 632.56 273.45 C 638.63 292.04 645.05 310.68 647.82 330.12 C 651.02 349.73 652.18 369.69 651.19 389.54 C 649.93 394.75 650.23 400.14 649.65 405.44 C 648.83 412.31 648.11 419.24 646.07 425.88 C 640.21 444.37 635.88 463.38 628.58 481.40 C 625.07 491.24 620.17 500.48 616.16 510.10 C 609.94 522.24 603.16 534.12 595.09 545.14 C 586.73 558.41 576.51 570.37 566.03 581.98 C 555.90 592.91 544.43 602.43 533.44 612.46 C 517.20 626.48 498.72 637.50 480.31 648.39 C 472.60 652.95 464.16 656.06 456.23 660.19 C 447.88 664.11 439.29 667.54 430.53 670.41 C 419.38 673.35 408.44 677.04 397.10 679.23 C 382.68 683.03 367.84 684.63 353.01 685.82 C 325.32 686.51 297.33 687.41 270.01 682.01 C 256.48 679.20 242.79 676.87 229.71 672.29 C 215.29 668.30 201.65 662.03 188.09 655.79 C 184.05 654.00 180.24 651.75 176.50 649.41 C 160.63 640.30 145.21 630.33 131.00 618.78 C 121.12 611.46 112.36 602.82 103.51 594.34 C 93.77 585.41 85.16 575.33 76.98 564.98 C 66.57 552.46 57.47 538.92 49.08 524.99 C 37.91 506.08 28.23 486.13 22.12 464.98 C 18.46 455.15 15.88 444.97 13.28 434.83 C 11.08 427.02 9.62 419.00 9.00 410.91 C 6.14 382.41 5.80 353.67 7.79 325.10 C 8.34 320.04 8.75 314.96 8.95 309.87 C 10.14 302.32 12.08 294.90 14.47 287.64 C 16.98 279.83 19.01 271.83 22.47 264.36 C 27.28 252.01 32.68 239.87 39.18 228.31 C 44.67 217.16 51.11 206.49 58.38 196.42 C 67.15 182.85 77.40 170.29 88.37 158.45 C 102.00 143.22 117.83 130.13 134.45 118.30 C 141.77 112.37 150.19 108.09 157.97 102.85 C 179.82 89.89 202.81 78.75 227.01 70.92 C 227.86 70.73 229.56 70.36 230.41 70.17 C 230.09 73.55 228.06 76.43 227.69 79.80 C 225.95 86.46 226.57 93.46 227.65 100.18 C 228.45 105.54 231.69 110.01 234.19 114.67 C 225.84 114.14 218.77 119.44 211.32 122.37 C 198.95 127.31 188.25 135.38 176.61 141.68 C 159.06 153.02 142.64 166.11 127.83 180.84 C 112.60 196.52 98.33 213.33 87.27 232.26 C 80.15 242.91 74.24 254.32 69.00 265.99 C 53.22 297.01 45.04 331.42 42.07 365.96 C 40.82 383.82 42.62 401.71 44.83 419.42 C 46.56 431.94 49.55 444.29 53.86 456.18 C 56.99 464.69 59.41 473.46 63.14 481.75 C 66.78 489.38 70.81 496.82 74.75 504.30 C 77.91 511.16 82.06 517.50 86.14 523.85 C 93.08 533.52 99.61 543.51 107.17 552.73 C 117.83 566.01 130.09 577.91 142.85 589.17 C 156.66 601.37 171.93 611.83 187.89 621.02 C 195.05 624.53 201.93 628.65 209.44 631.43 C 217.62 634.59 225.55 638.45 233.96 641.00 C 247.47 646.11 261.79 648.32 275.87 651.23 C 322.14 659.04 370.06 655.47 415.06 642.43 C 431.71 637.27 447.61 630.00 463.15 622.17 C 473.12 617.08 482.36 610.72 491.79 604.73 C 509.00 591.85 525.48 577.81 539.71 561.65 C 556.57 541.85 570.83 519.94 583.11 497.04 C 589.64 482.70 595.91 468.19 600.16 452.99 C 604.21 437.50 608.57 422.01 610.15 406.03 C 611.88 395.08 610.45 383.99 611.26 372.98 C 612.75 354.80 607.73 337.03 603.70 319.49 C 601.50 309.48 598.31 299.72 594.85 290.10 C 594.22 286.85 592.31 284.04 591.46 280.86 C 589.93 280.16 591.21 278.05 589.82 277.24 C 587.60 270.26 583.89 263.92 580.72 257.36 C 580.03 256.30 579.76 254.73 578.45 254.26 C 578.52 253.86 578.66 253.05 578.73 252.65 L 577.38 252.54 C 577.46 252.12 577.64 251.28 577.73 250.86 C 574.37 248.88 574.63 243.53 571.59 241.34 C 571.23 240.09 570.72 238.87 569.52 238.23 C 569.54 237.86 569.60 237.11 569.63 236.73 C 567.82 236.83 567.37 234.91 567.48 233.55 L 566.25 233.49 C 566.37 233.07 566.63 232.21 566.75 231.78 C 564.64 231.86 564.38 230.06 564.50 228.40 L 562.96 228.68 L 564.10 227.14 L 562.36 227.57 C 562.43 227.10 562.58 226.16 562.65 225.70 C 560.75 225.81 560.34 224.12 560.50 222.64 C 558.17 222.47 557.92 221.68 559.74 220.26 L 557.29 220.62 C 557.39 220.11 557.59 219.09 557.69 218.57 C 557.06 218.37 555.80 217.97 555.17 217.77 L 557.05 216.18 L 554.40 216.63 C 554.46 216.13 554.58 215.13 554.64 214.63 C 554.03 214.41 552.81 213.96 552.20 213.74 L 553.69 212.24 L 551.36 212.68 C 551.42 212.17 551.56 211.14 551.63 210.63 C 549.50 211.10 549.48 208.88 549.48 207.50 L 548.30 207.76 L 548.63 206.38 L 547.19 206.59 C 547.35 206.11 547.67 205.14 547.83 204.66 L 546.48 204.65 L 546.61 203.47 L 545.47 203.53 L 545.57 202.38 L 544.51 202.42 C 544.29 200.16 542.24 198.65 540.69 197.20 C 539.53 194.84 537.61 192.94 535.68 191.20 C 535.15 190.13 534.54 189.10 533.70 188.26 C 519.62 173.83 504.69 160.14 487.67 149.23 C 475.82 140.32 462.67 133.44 449.53 126.68 C 438.48 121.21 426.90 116.77 414.85 114.06 C 416.26 109.53 419.34 105.72 420.35 101.05 C 423.78 90.71 425.21 78.37 419.21 68.70 Z" />
<path fill="#fcfdf8" opacity="1.00" d=" M 328.41 119.30 C 333.41 116.36 340.34 122.08 338.41 127.53 C 336.67 130.96 331.58 134.02 328.31 130.74 C 324.56 128.09 324.78 121.92 328.41 119.30 Z" />
<path fill="#fcfdf8" opacity="1.00" d=" M 326.38 146.39 C 328.63 145.12 332.09 144.77 333.89 146.98 C 335.62 148.96 337.17 151.39 336.96 154.15 C 336.45 156.26 334.95 158.00 333.31 159.34 C 329.03 161.84 322.73 159.04 322.00 154.05 C 321.38 150.81 323.67 147.86 326.38 146.39 Z" />
<path fill="#fcfdf8" opacity="1.00" d=" M 320.50 180.75 C 333.61 177.22 346.84 192.25 342.67 204.93 C 339.97 214.89 327.36 222.13 317.81 216.91 C 311.50 214.07 306.86 207.80 305.81 200.99 C 304.49 191.77 311.69 182.83 320.50 180.75 Z" />
<path fill="#fcfdf8" opacity="1.00" d=" M 507.93 255.96 C 507.74 252.64 510.42 248.90 514.03 249.36 C 517.00 249.32 518.73 252.37 518.59 255.06 C 518.72 273.06 517.59 291.04 517.97 309.04 C 517.61 324.01 517.68 338.97 517.32 353.94 C 516.28 364.26 517.11 374.65 516.82 385.00 C 516.98 392.32 516.09 399.60 516.12 406.91 C 514.52 396.66 512.67 386.43 509.47 376.53 C 507.39 370.58 507.38 364.21 507.87 358.00 C 508.03 337.35 508.31 316.69 507.44 296.05 C 507.76 282.69 507.80 269.32 507.93 255.96 Z" />
<path fill="#fcfdf8" opacity="1.00" d=" M 143.62 277.28 C 146.60 279.74 150.34 281.89 151.80 285.66 C 153.94 293.64 151.69 301.90 152.66 310.00 C 153.49 317.14 153.70 324.36 152.85 331.51 C 149.79 340.29 145.95 348.79 143.15 357.67 C 142.72 339.13 141.83 320.60 142.13 302.05 C 141.94 293.75 143.19 285.53 143.62 277.28 Z" />
<path fill="#fcfdf8" opacity="1.00" d=" M 122.73 285.08 C 122.78 280.69 127.80 279.83 131.21 280.72 C 133.08 287.65 131.38 294.91 131.68 301.98 C 131.85 317.98 132.13 333.98 132.17 349.99 C 132.14 362.01 133.25 374.03 132.80 386.06 C 131.19 402.66 130.42 419.36 131.05 436.04 C 131.67 448.35 133.69 460.60 133.45 472.94 C 133.72 478.69 124.05 482.09 122.11 475.80 C 121.33 467.53 123.03 459.27 122.84 450.99 C 122.99 407.34 123.30 363.70 122.93 320.06 C 122.96 308.40 122.15 296.73 122.73 285.08 Z" />
<path fill="#fcfdf8" opacity="1.00" d=" M 530.41 282.63 C 533.69 280.70 537.59 283.38 537.94 286.92 C 538.28 296.32 537.21 305.69 536.87 315.08 C 536.29 325.06 536.86 335.06 536.78 345.05 C 536.61 359.04 536.49 373.03 536.70 387.01 C 536.17 413.67 535.71 440.39 537.92 466.99 C 537.88 470.85 539.07 475.65 535.60 478.44 C 532.23 480.51 526.57 478.41 526.69 473.99 C 527.05 452.33 526.71 430.65 526.64 408.99 C 526.36 380.99 527.15 352.99 527.32 324.99 C 527.26 313.66 527.91 302.34 527.88 291.01 C 528.08 288.13 527.46 284.33 530.41 282.63 Z" />
<path fill="#fcfdf8" opacity="1.00" d=" M 358.48 285.75 C 365.77 282.26 373.74 289.65 373.43 297.04 C 373.85 304.39 366.06 310.91 358.90 309.00 C 354.94 308.25 350.60 305.36 350.60 300.90 C 349.63 294.77 353.44 288.89 358.48 285.75 Z" />
<path fill="#fcfdf8" opacity="1.00" d=" M 490.84 299.76 C 492.77 298.61 495.90 298.87 496.87 301.16 C 498.66 305.55 497.83 310.39 498.00 315.00 C 497.67 322.40 497.13 329.79 496.73 337.19 C 494.78 332.93 491.70 329.27 490.22 324.78 C 487.61 319.25 487.96 313.01 488.74 307.12 C 489.07 304.59 489.24 301.86 490.84 299.76 Z" />
<path fill="#fcfdf8" opacity="1.00" d=" M 316.47 309.09 C 316.57 305.85 319.15 301.20 323.00 302.27 C 325.33 302.90 326.62 305.55 326.65 307.83 C 327.29 318.88 327.05 329.95 326.93 341.01 C 327.30 354.35 326.79 367.69 326.50 381.02 C 326.75 404.02 326.64 427.03 326.57 450.03 C 326.77 471.03 327.06 492.02 327.11 513.02 C 327.08 524.03 326.63 535.04 326.79 546.05 C 327.16 549.65 327.32 553.36 328.51 556.82 C 330.80 556.49 333.41 556.81 335.36 555.32 C 337.06 553.68 337.09 551.17 337.09 548.98 C 336.36 522.65 337.00 496.30 336.74 469.97 C 336.31 440.32 336.62 410.68 336.40 381.04 C 336.45 369.70 337.40 358.35 336.55 347.02 C 336.40 343.20 336.14 338.42 339.48 335.80 C 342.97 333.63 346.87 337.47 346.30 341.12 C 346.10 356.09 346.71 371.06 346.78 386.03 C 345.76 433.05 347.08 480.09 346.05 527.11 C 345.39 531.04 350.14 534.21 353.55 532.49 C 355.95 530.86 357.25 527.82 357.22 524.97 C 356.70 506.67 356.68 488.35 356.98 470.04 C 356.59 459.35 357.54 448.65 356.90 437.97 C 357.04 412.33 357.40 386.65 356.77 361.02 C 356.23 356.16 362.25 355.07 365.26 357.70 C 368.06 359.49 367.37 363.13 367.42 365.95 C 366.20 390.27 366.86 414.63 366.44 438.98 C 366.49 459.32 366.88 479.66 366.32 500.00 C 366.28 502.48 366.18 505.01 366.74 507.45 C 368.22 510.71 374.08 511.28 375.49 507.68 C 376.76 503.23 375.85 498.54 376.17 493.99 C 377.41 469.35 376.05 444.68 376.53 420.03 C 376.50 410.68 376.86 401.32 376.29 391.98 C 375.74 386.96 376.07 381.38 380.17 377.84 C 380.38 377.59 380.79 377.10 381.00 376.85 C 380.86 374.36 380.49 371.90 380.24 369.43 C 385.62 369.94 390.72 372.03 396.14 372.20 C 411.72 374.50 427.99 373.91 443.01 368.89 C 448.27 367.30 453.44 365.19 457.89 361.91 C 458.47 365.13 460.10 368.00 460.99 371.13 C 463.86 380.65 466.32 390.29 468.25 400.05 C 470.69 411.50 470.54 423.30 470.44 434.95 C 470.40 443.76 468.55 452.41 466.30 460.89 C 462.22 478.87 454.59 496.04 444.17 511.22 C 444.02 511.35 443.72 511.59 443.57 511.71 C 438.16 516.26 433.32 521.46 427.64 525.70 C 417.81 535.63 405.98 543.52 393.20 549.12 C 386.98 551.81 381.41 555.90 374.86 557.80 C 362.93 561.62 350.40 562.96 337.94 563.60 C 335.59 563.87 333.49 562.67 331.45 561.73 C 327.71 559.76 323.26 560.94 319.36 559.47 C 307.99 555.89 295.74 557.12 284.39 553.48 C 277.72 551.34 270.77 549.78 264.58 546.38 C 256.30 541.71 247.40 537.96 240.03 531.82 C 232.80 526.55 226.73 519.94 220.29 513.78 C 211.44 504.56 202.98 494.92 195.75 484.37 C 191.48 478.19 188.64 471.20 185.49 464.42 C 183.22 459.62 182.08 454.39 179.79 449.60 C 172.72 418.24 180.31 385.38 193.69 356.74 C 197.62 347.23 204.58 339.48 209.59 330.58 C 211.84 326.41 215.84 322.01 221.01 322.57 C 226.88 322.90 232.85 323.70 238.35 325.92 C 246.03 329.10 253.08 333.53 260.50 337.25 C 265.34 339.81 269.83 343.04 274.91 345.15 C 276.81 346.35 279.47 346.56 280.84 348.46 C 281.21 348.43 281.95 348.37 282.32 348.34 L 282.67 349.53 C 283.64 352.00 284.99 354.34 285.70 356.92 C 285.46 359.93 284.93 362.92 284.88 365.96 C 286.04 387.63 286.15 409.36 286.24 431.07 C 285.94 455.39 286.28 479.70 285.95 504.02 C 285.84 507.32 285.11 510.64 285.69 513.94 C 286.16 517.55 291.34 519.76 294.03 517.08 C 296.36 513.15 295.91 508.36 296.24 503.98 C 296.96 477.34 296.36 450.68 296.44 424.04 C 297.05 398.36 296.31 372.67 295.94 346.99 C 296.02 343.97 295.99 340.00 299.00 338.30 C 302.37 337.36 305.83 340.39 305.72 343.81 C 306.33 365.20 307.05 386.60 306.72 408.01 C 306.23 431.99 306.89 455.96 306.40 479.94 C 306.12 495.33 306.77 510.77 305.30 526.12 C 305.09 529.89 304.47 533.79 305.52 537.50 C 307.30 540.36 311.34 539.95 314.21 539.39 C 317.54 537.99 317.20 534.06 317.11 531.09 C 317.16 469.41 316.38 407.73 317.04 346.05 C 317.12 333.73 316.27 321.41 316.47 309.09 M 268.57 366.69 C 266.27 368.34 265.01 371.22 264.76 373.97 C 266.30 386.91 265.11 399.96 265.76 412.95 C 266.67 439.63 265.92 466.32 265.58 492.99 C 265.76 495.61 264.91 498.89 267.14 500.88 C 269.53 503.49 274.70 503.27 276.28 499.89 C 277.27 495.31 276.32 490.61 276.47 485.99 C 276.67 472.66 276.51 459.33 276.73 446.01 C 277.00 431.32 276.36 416.63 276.63 401.94 C 276.63 391.99 276.92 382.03 276.57 372.08 C 276.55 369.69 274.87 367.92 273.14 366.51 C 271.63 366.57 270.00 366.13 268.57 366.69 M 385.77 397.00 C 386.20 409.67 386.55 422.36 386.23 435.05 C 386.77 454.02 385.95 473.00 385.96 491.98 C 385.96 493.98 386.17 495.99 386.77 497.91 C 388.71 499.46 391.49 500.05 393.71 498.69 C 396.73 496.98 397.50 493.14 397.58 489.95 C 397.51 483.60 396.36 477.30 396.45 470.94 C 396.63 449.33 396.54 427.71 396.80 406.10 C 396.94 402.65 397.92 399.30 397.90 395.85 C 396.82 392.04 392.73 390.15 389.04 390.04 C 387.23 391.96 385.33 394.13 385.77 397.00 M 249.37 394.52 C 247.78 394.88 246.36 395.97 245.67 397.45 C 243.36 401.70 245.67 406.51 245.52 411.02 C 245.38 431.71 245.63 452.42 244.85 473.09 C 244.65 476.82 243.53 482.32 248.01 483.97 C 252.00 486.09 256.28 482.04 256.19 478.04 C 256.14 454.69 255.63 431.34 256.16 407.99 C 256.09 404.07 256.44 400.12 255.91 396.24 C 254.57 394.04 251.59 394.02 249.37 394.52 M 408.49 400.38 C 406.65 402.46 405.78 405.28 405.93 408.05 C 405.93 426.36 406.67 444.66 406.26 462.97 C 406.52 467.15 405.57 471.66 407.33 475.58 C 409.21 476.87 411.66 478.15 413.95 477.19 C 416.99 475.21 416.99 471.21 416.90 468.00 C 416.42 458.69 416.67 449.36 416.64 440.05 C 417.03 430.02 415.90 419.80 418.35 409.95 C 419.21 406.35 416.98 402.82 414.19 400.74 C 412.56 399.61 410.09 398.73 408.49 400.38 M 228.39 410.51 C 225.66 411.96 225.67 415.40 225.51 418.08 C 225.51 423.42 226.21 428.76 225.84 434.10 C 225.22 438.73 227.02 443.26 226.23 447.89 C 226.30 453.86 224.30 459.98 225.95 465.86 C 228.61 468.19 233.65 469.20 235.91 465.85 C 237.07 462.75 236.64 459.34 236.83 456.10 C 236.85 441.78 237.61 427.43 236.63 413.13 C 236.13 409.29 231.12 409.46 228.39 410.51 M 426.72 418.77 C 424.42 422.40 425.26 426.99 425.17 431.08 C 425.62 440.05 425.19 449.05 425.69 458.02 C 428.73 459.56 432.74 460.62 435.91 458.82 C 438.18 454.28 436.02 448.88 437.06 444.04 C 439.01 437.21 438.14 430.01 437.45 423.05 C 437.20 418.16 429.93 414.14 426.72 418.77 M 209.10 430.26 C 206.46 431.59 205.00 434.37 204.16 437.09 C 203.40 439.64 205.54 441.62 206.20 443.93 C 207.15 446.48 208.84 449.57 212.01 449.44 C 215.85 449.99 217.91 446.07 218.68 442.94 C 219.46 439.51 220.23 435.30 217.71 432.38 C 215.68 429.84 212.07 429.34 209.10 430.26 M 446.42 433.22 C 444.50 435.06 441.80 437.03 441.85 439.95 C 443.69 443.19 445.71 447.54 450.03 447.64 C 454.43 447.61 460.18 445.01 460.66 440.14 C 459.13 434.38 451.80 431.51 446.42 433.22 M 187.06 440.95 C 188.10 444.84 192.11 447.35 195.95 447.65 C 199.72 446.83 201.94 443.08 203.92 440.08 C 202.92 438.71 201.93 437.34 200.95 435.97 C 196.00 434.45 188.79 435.19 187.06 440.95 Z" />
<path fill="#fcfdf8" opacity="1.00" d=" M 106.33 308.45 C 108.37 307.53 110.65 308.70 111.92 310.34 C 113.68 312.87 112.65 316.10 112.86 318.97 C 113.05 360.32 112.97 401.67 112.83 443.02 C 112.83 446.17 112.75 449.99 109.77 451.89 C 106.83 454.18 102.74 451.24 102.49 447.95 C 103.52 424.68 103.13 401.32 103.42 378.02 C 103.18 368.68 103.08 359.32 103.49 349.98 C 103.22 337.67 103.07 325.36 102.60 313.06 C 102.77 310.97 104.60 309.39 106.33 308.45 Z" />
<path fill="#fcfdf8" opacity="1.00" d=" M 549.28 310.18 C 551.62 309.92 554.85 309.27 556.31 311.70 C 557.76 314.94 556.49 318.55 556.43 321.94 C 555.55 345.97 556.24 370.02 556.02 394.06 C 555.91 410.72 556.28 427.37 556.90 444.01 C 557.50 447.55 554.75 451.39 551.02 451.31 C 547.72 450.14 546.26 446.28 546.55 442.99 C 546.82 403.68 547.03 364.36 546.88 325.04 C 547.00 320.03 546.30 314.57 549.28 310.18 Z" />
<path fill="#fcfdf8" opacity="1.00" d=" M 86.26 335.38 C 89.10 334.19 92.20 336.28 92.96 339.07 C 93.79 342.66 93.29 346.37 93.24 350.02 C 93.72 359.66 93.81 369.34 93.25 378.98 C 93.55 391.69 93.00 404.41 93.85 417.10 C 93.74 420.64 90.27 424.68 86.45 423.60 C 83.75 422.16 82.33 419.05 82.76 416.05 C 84.77 391.06 83.63 365.99 82.87 340.98 C 82.45 338.56 84.06 336.25 86.26 335.38 Z" />
<path fill="#fcfdf8" opacity="1.00" d=" M 570.30 335.08 C 573.86 333.45 577.87 337.42 577.52 341.03 C 577.01 348.34 577.81 355.67 577.03 362.97 C 576.43 374.32 576.81 385.68 576.80 397.03 C 577.50 404.02 577.55 411.06 577.26 418.07 C 576.42 420.30 574.71 422.67 572.09 422.71 C 569.73 423.12 567.85 421.06 567.04 419.10 C 566.50 413.09 566.94 407.04 566.95 401.02 C 567.05 381.67 567.00 362.32 566.92 342.98 C 566.72 340.00 567.98 336.97 570.30 335.08 Z" />
<path fill="#fcfdf8" opacity="1.00" d=" M 62.96 363.99 C 62.73 360.40 66.41 357.06 70.00 358.17 C 73.36 359.02 73.50 363.12 73.85 365.96 C 73.89 374.99 73.84 384.02 73.94 393.05 C 74.02 397.11 71.04 402.17 66.33 400.94 C 63.86 399.03 62.27 396.24 62.63 393.03 C 63.26 383.36 63.11 373.67 62.96 363.99 Z" />
<path fill="#fcfdf8" opacity="1.00" d=" M 586.78 366.07 C 586.48 362.01 590.79 357.48 594.82 360.15 C 595.30 361.05 595.73 361.98 596.09 362.95 C 596.61 369.90 595.73 376.88 596.26 383.83 C 597.00 387.92 597.09 392.09 596.91 396.23 C 596.48 398.64 594.03 399.75 591.81 399.87 C 590.12 399.43 588.72 398.27 587.21 397.46 C 585.60 387.09 586.89 376.52 586.78 366.07 Z" />
<path fill="#fcfdf8" opacity="1.00" d=" M 508.85 475.47 C 511.71 462.04 514.05 448.47 515.57 434.83 C 516.16 448.25 517.33 461.66 517.73 475.10 C 518.59 481.85 517.97 488.69 518.75 495.47 C 518.77 500.21 520.87 506.08 516.87 509.82 C 514.27 512.76 510.09 510.26 507.96 508.00 C 505.38 505.73 505.70 502.12 505.79 499.02 C 506.50 491.13 507.29 483.24 508.85 475.47 Z" />
<path fill="#fcfdf8" opacity="1.00" d=" M 398.00 552.61 C 400.98 550.66 404.80 548.00 408.47 549.72 C 403.98 552.49 399.41 555.11 394.71 557.50 C 394.67 556.61 394.65 555.75 394.62 554.88 C 395.44 554.55 396.26 554.22 397.09 553.91 C 396.52 553.39 395.96 552.88 395.40 552.38 C 396.05 552.43 397.35 552.55 398.00 552.61 Z" />
<path fill="#fcfdf8" opacity="1.00" d=" M 352.00 570.76 C 358.18 570.01 364.39 569.20 370.59 568.87 C 366.15 571.56 360.87 571.86 355.92 572.90 C 339.68 576.00 322.81 577.96 306.53 574.00 C 312.65 570.50 319.25 575.00 325.63 574.68 C 333.43 576.21 341.11 573.44 348.91 573.28 C 349.90 572.44 350.48 570.71 352.00 570.76 Z" />
</g>
<g id="#bfcbceff">
<path fill="#bfcbce" opacity="1.00" d=" M 143.79 250.84 C 148.58 251.33 152.08 256.36 152.10 261.02 C 152.22 269.63 151.12 278.39 152.93 286.91 C 154.07 294.09 152.57 301.40 153.48 308.59 C 155.06 314.24 154.55 320.14 154.66 325.93 C 154.70 327.94 153.78 329.79 152.85 331.51 C 153.70 324.36 153.49 317.14 152.66 310.00 C 151.69 301.90 153.94 293.64 151.80 285.66 C 150.34 281.89 146.60 279.74 143.62 277.28 C 144.44 269.80 143.15 262.39 142.89 254.94 C 142.61 253.47 143.21 252.13 143.79 250.84 Z" />
<path fill="#bfcbce" opacity="1.00" d=" M 2.19 350.09 C 3.18 336.50 6.26 323.21 8.95 309.87 C 8.75 314.96 8.34 320.04 7.79 325.10 C 5.80 353.67 6.14 382.41 9.00 410.91 C 9.62 419.00 11.08 427.02 13.28 434.83 C 15.88 444.97 18.46 455.15 22.12 464.98 C 28.23 486.13 37.91 506.08 49.08 524.99 C 57.47 538.92 66.57 552.46 76.98 564.98 C 85.16 575.33 93.77 585.41 103.51 594.34 C 112.36 602.82 121.12 611.46 131.00 618.78 C 145.21 630.33 160.63 640.30 176.50 649.41 C 180.24 651.75 184.05 654.00 188.09 655.79 C 201.65 662.03 215.29 668.30 229.71 672.29 C 242.79 676.87 256.48 679.20 270.01 682.01 C 297.33 687.41 325.32 686.51 353.01 685.82 C 367.84 684.63 382.68 683.03 397.10 679.23 C 408.44 677.04 419.38 673.35 430.53 670.41 C 439.29 667.54 447.88 664.11 456.23 660.19 C 464.16 656.06 472.60 652.95 480.31 648.39 C 498.72 637.50 517.20 626.48 533.44 612.46 C 544.43 602.43 555.90 592.91 566.03 581.98 C 576.51 570.37 586.73 558.41 595.09 545.14 C 603.16 534.12 609.94 522.24 616.16 510.10 C 620.17 500.48 625.07 491.24 628.58 481.40 C 635.88 463.38 640.21 444.37 646.07 425.88 C 648.11 419.24 648.83 412.31 649.65 405.44 C 650.23 400.14 649.93 394.75 651.19 389.54 C 651.39 396.04 651.09 402.55 650.44 409.01 C 650.42 418.45 648.78 427.79 647.04 437.04 C 643.64 456.37 638.67 475.43 632.19 493.95 C 624.14 511.19 618.59 529.80 607.52 545.50 C 602.94 551.80 600.28 559.30 595.22 565.28 C 588.79 574.40 581.18 582.55 574.47 591.46 C 562.17 604.82 548.90 617.35 534.47 628.42 C 527.24 633.54 520.68 639.58 513.02 644.09 C 502.88 651.25 491.77 656.89 481.06 663.14 C 464.08 672.91 445.35 678.91 427.08 685.71 C 400.15 694.03 372.23 699.71 344.00 700.63 C 320.70 701.78 297.25 700.95 274.17 697.45 C 259.99 694.90 245.69 692.50 232.05 687.74 C 204.49 680.14 178.38 667.92 154.10 652.92 C 136.89 641.39 119.72 629.60 104.69 615.25 C 97.53 608.86 90.50 602.22 84.47 594.73 C 68.47 577.94 54.65 559.05 43.17 538.87 C 39.14 531.54 35.10 524.22 31.32 516.76 C 23.99 500.52 16.89 484.12 12.11 466.91 C -0.05 429.37 -1.92 389.14 2.19 350.09 Z" />
<path fill="#bfcbce" opacity="1.00" d=" M 282.67 349.53 C 284.24 348.59 285.34 350.59 286.66 351.11 C 287.85 351.80 289.34 351.69 290.67 351.91 C 289.53 352.14 289.08 352.88 289.34 354.12 C 288.16 355.10 286.90 355.98 285.70 356.92 C 284.99 354.34 283.64 352.00 282.67 349.53 Z" />
<path fill="#bfcbce" opacity="1.00" d=" M 375.63 368.43 C 377.59 368.08 379.60 368.14 381.54 368.64 C 386.41 369.79 391.38 370.64 396.14 372.20 C 390.72 372.03 385.62 369.94 380.24 369.43 C 380.49 371.90 380.86 374.36 381.00 376.85 C 380.79 377.10 380.38 377.59 380.17 377.84 C 380.15 376.58 380.15 375.33 380.14 374.08 C 377.93 373.92 377.80 371.30 375.77 371.22 C 375.72 370.28 375.67 369.36 375.63 368.43 Z" />
<path fill="#bfcbce" opacity="1.00" d=" M 179.79 449.60 C 182.08 454.39 183.22 459.62 185.49 464.42 C 188.64 471.20 191.48 478.19 195.75 484.37 C 202.98 494.92 211.44 504.56 220.29 513.78 C 226.73 519.94 232.80 526.55 240.03 531.82 C 247.40 537.96 256.30 541.71 264.58 546.38 C 270.77 549.78 277.72 551.34 284.39 553.48 C 295.74 557.12 307.99 555.89 319.36 559.47 C 323.26 560.94 327.71 559.76 331.45 561.73 C 333.49 562.67 335.59 563.87 337.94 563.60 C 350.40 562.96 362.93 561.62 374.86 557.80 C 381.41 555.90 386.98 551.81 393.20 549.12 C 405.98 543.52 417.81 535.63 427.64 525.70 C 433.32 521.46 438.16 516.26 443.57 511.71 C 443.69 513.28 442.40 514.39 441.66 515.63 C 432.56 528.69 421.64 540.67 408.47 549.72 C 404.80 548.00 400.98 550.66 398.00 552.61 C 397.35 552.55 396.05 552.43 395.40 552.38 C 395.96 552.88 396.52 553.39 397.09 553.91 C 396.26 554.22 395.44 554.55 394.62 554.88 C 394.65 555.75 394.67 556.61 394.71 557.50 L 394.72 557.85 C 387.40 562.76 378.79 565.01 370.95 568.89 L 370.59 568.87 C 364.39 569.20 358.18 570.01 352.00 570.76 C 350.48 570.71 349.90 572.44 348.91 573.28 C 341.11 573.44 333.43 576.21 325.63 574.68 C 319.25 575.00 312.65 570.50 306.53 574.00 C 294.83 573.11 284.02 568.00 272.98 564.41 C 264.65 561.86 257.06 557.50 249.37 553.51 C 244.04 549.97 239.01 545.98 234.19 541.77 C 226.12 536.03 219.41 528.68 212.64 521.52 C 195.22 501.25 183.59 476.08 179.79 449.60 Z" />
<path fill="#bfcbce" opacity="1.00" d=" M 154.23 466.78 C 155.27 468.47 156.23 470.22 156.84 472.12 C 163.51 491.25 173.20 509.31 185.33 525.53 C 191.27 531.99 197.70 538.05 204.87 543.14 C 210.22 547.07 214.78 552.12 220.64 555.32 C 223.34 556.36 227.40 557.82 229.64 555.23 C 240.77 563.76 253.18 570.39 266.15 575.65 C 288.66 585.28 313.32 590.17 337.82 588.84 C 354.74 587.21 371.49 583.26 387.01 576.22 C 390.93 576.79 394.20 573.99 397.64 572.59 C 403.19 569.42 409.94 568.26 414.53 563.53 C 420.52 558.05 428.87 556.28 434.97 550.96 C 441.66 543.97 449.97 536.72 460.34 537.32 C 455.44 543.07 450.74 548.98 445.54 554.47 C 440.15 559.84 433.85 564.13 427.95 568.90 C 420.20 574.87 411.73 579.87 402.91 584.10 C 389.32 591.35 374.61 596.36 359.59 599.67 C 336.21 605.92 311.50 603.96 288.05 599.14 C 278.59 596.72 269.40 593.32 260.37 589.61 C 252.84 585.95 245.44 582.03 237.87 578.45 C 232.09 575.73 227.13 571.66 221.96 567.99 C 215.94 563.80 210.59 558.74 205.49 553.50 C 195.16 543.43 185.05 532.86 177.76 520.30 C 173.19 512.76 168.05 505.44 164.91 497.14 C 162.21 491.99 160.64 486.37 158.43 481.02 C 157.11 476.25 154.74 471.74 154.23 466.78 Z" />
<path fill="#bfcbce" opacity="1.00" d=" M 139.52 507.15 C 139.16 503.02 139.36 498.53 143.02 495.84 C 143.72 497.34 144.44 498.86 145.12 500.38 C 145.30 500.78 145.64 501.58 145.82 501.98 C 145.44 502.95 145.06 503.93 144.69 504.92 C 143.03 505.80 141.31 506.56 139.52 507.15 Z" />
</g>
<g id="#707a83ff">
<path fill="#707a83" opacity="1.00" d=" M 130.45 254.11 C 131.05 254.09 132.24 254.05 132.83 254.03 C 133.89 258.10 132.01 261.95 131.93 265.98 C 131.92 267.66 131.41 269.26 130.66 270.75 C 130.12 270.77 129.05 270.80 128.51 270.81 C 126.19 265.38 126.83 258.83 130.45 254.11 Z" />
<path fill="#707a83" opacity="1.00" d=" M 139.56 484.96 C 144.06 488.42 145.56 494.93 145.12 500.38 C 144.44 498.86 143.72 497.34 143.02 495.84 C 139.36 498.53 139.16 503.02 139.52 507.15 C 139.12 507.17 138.30 507.22 137.90 507.25 C 138.08 502.11 137.18 496.76 138.94 491.82 C 139.58 489.59 139.36 487.23 139.56 484.96 Z" />
</g>
</svg>
